<?xml version="1.0" encoding="UTF-8" standalone="no"?>
<!-- Created with Inkscape (http://www.inkscape.org/) -->

<svg
   width="142.86099"
   height="160"
   viewBox="0 0 37.798636 42.333332"
   version="1.1"
   id="svg2201"
   xml:space="preserve"
   inkscape:version="1.2 (dc2aedaf03, 2022-05-15)"
   sodipodi:docname="logo_only.svg"
   xmlns:inkscape="http://www.inkscape.org/namespaces/inkscape"
   xmlns:sodipodi="http://sodipodi.sourceforge.net/DTD/sodipodi-0.dtd"
   xmlns:xlink="http://www.w3.org/1999/xlink"
   xmlns="http://www.w3.org/2000/svg"
   xmlns:svg="http://www.w3.org/2000/svg"><sodipodi:namedview
     id="namedview2203"
     pagecolor="#ffffff"
     bordercolor="#000000"
     borderopacity="0.25"
     inkscape:showpageshadow="2"
     inkscape:pageopacity="0.0"
     inkscape:pagecheckerboard="0"
     inkscape:deskcolor="#d1d1d1"
     inkscape:document-units="px"
     showgrid="false"
     inkscape:zoom="1.4324916"
     inkscape:cx="174.87014"
     inkscape:cy="12.914561"
     inkscape:window-width="1920"
     inkscape:window-height="991"
     inkscape:window-x="-9"
     inkscape:window-y="-9"
     inkscape:window-maximized="1"
     inkscape:current-layer="svg2201"
     showguides="true"
     inkscape:lockguides="false" /><defs
     id="defs2198"><clipPath
       clipPathUnits="userSpaceOnUse"
       id="clipPath2703"><path
         d="M 0,0 H 500 V 500 H 0 Z"
         id="path2701" /></clipPath><radialGradient
       fx="0"
       fy="0"
       cx="0"
       cy="0"
       r="1"
       gradientUnits="userSpaceOnUse"
       gradientTransform="matrix(402.0199,0,0,-402.0199,250,250)"
       spreadMethod="pad"
       id="radialGradient2719"><stop
         style="stop-opacity:1;stop-color:#52104d"
         offset="0"
         id="stop2709" /><stop
         style="stop-opacity:1;stop-color:#52104d"
         offset="0.0572111"
         id="stop2711" /><stop
         style="stop-opacity:1;stop-color:#200731"
         offset="0.30873331"
         id="stop2713" /><stop
         style="stop-opacity:1;stop-color:#200731"
         offset="0.623868"
         id="stop2715" /><stop
         style="stop-opacity:1;stop-color:#200731"
         offset="1"
         id="stop2717" /></radialGradient><clipPath
       clipPathUnits="userSpaceOnUse"
       id="clipPath2729"><path
         d="m 171.921,324.836 c -6.033,-6.032 -6.032,-15.814 0,-21.846 v 0 l 27.669,-27.602 19.106,-19.172 c 6.032,-6.033 15.812,-6.033 21.845,0 v 0 c 6.033,6.03 6.033,15.813 0,21.843 v 0 l -46.775,46.777 c -3.016,3.016 -6.97,4.524 -10.923,4.524 v 0 c -3.954,0 -7.906,-1.508 -10.922,-4.524"
         id="path2727" /></clipPath><radialGradient
       fx="0"
       fy="0"
       cx="0"
       cy="0"
       r="1"
       gradientUnits="userSpaceOnUse"
       gradientTransform="matrix(85.869682,0,0,-85.869682,170.24854,317.78516)"
       spreadMethod="pad"
       id="radialGradient2743"><stop
         style="stop-color:#053b7a;stop-opacity:1;"
         offset="0"
         id="stop2735" /><stop
         style="stop-color:#053b7a;stop-opacity:1;"
         offset="0.166667"
         id="stop2737" /><stop
         style="stop-color:#053b7a;stop-opacity:1;"
         offset="0.58461493"
         id="stop2739" /><stop
         style="stop-color:#00a9fd;stop-opacity:1;"
         offset="1"
         id="stop2741" /></radialGradient><clipPath
       clipPathUnits="userSpaceOnUse"
       id="clipPath2753"><path
         d="m 218.695,371.64 -46.774,-46.777 c -5.908,-5.906 -6.278,-15.149 -0.618,-21.205 v 0 l 0.24,-0.254 0.311,-0.312 c 0.024,-0.023 0.043,-0.049 0.067,-0.073 v 0 c 0.024,-0.025 0.052,-0.046 0.077,-0.071 v 0 l 27.592,-27.56 c -14.857,14.858 5.09,38.544 5.09,38.544 v 0 l -0.004,-0.001 35.865,35.863 c 6.031,6.033 6.033,15.815 0,21.846 v 0 c -3.016,3.016 -6.969,4.524 -10.922,4.524 v 0 c -3.954,0 -7.907,-1.508 -10.924,-4.524"
         id="path2751" /></clipPath><linearGradient
       x1="0"
       y1="0"
       x2="1"
       y2="0"
       gradientUnits="userSpaceOnUse"
       gradientTransform="matrix(108.67403,0,0,-108.67403,183.28564,325.77637)"
       spreadMethod="pad"
       id="linearGradient2767"><stop
         style="stop-color:#00a9fd;stop-opacity:1;"
         offset="0"
         id="stop2759" /><stop
         style="stop-color:#053b7a;stop-opacity:1;"
         offset="0.41538504"
         id="stop2761" /><stop
         style="stop-color:#053b7a;stop-opacity:1;"
         offset="0.83333302"
         id="stop2763" /><stop
         style="stop-color:#053b7a;stop-opacity:1;"
         offset="1"
         id="stop2765" /></linearGradient><clipPath
       clipPathUnits="userSpaceOnUse"
       id="clipPath2777"><path
         d="m 256.661,313.998 c -6.031,-6.032 -6.031,-15.813 0,-21.844 v 0 l 46.777,-46.777 c 6.032,-6.032 15.814,-6.034 21.845,0 v 0 c 6.033,6.033 6.031,15.814 0,21.846 v 0 l -27.671,27.602 -19.104,19.173 c -3.018,3.017 -6.971,4.525 -10.924,4.525 v 0 c -3.953,0 -7.906,-1.508 -10.923,-4.525"
         id="path2775" /></clipPath><linearGradient
       x1="0"
       y1="0"
       x2="1"
       y2="0"
       gradientUnits="userSpaceOnUse"
       gradientTransform="matrix(-77.669922,0,0,77.669922,329.80762,279.6875)"
       spreadMethod="pad"
       id="linearGradient2791"><stop
         style="stop-color:#053b7a;stop-opacity:1;"
         offset="0"
         id="stop2783" /><stop
         style="stop-color:#053b7a;stop-opacity:1;"
         offset="0.00955605"
         id="stop2785" /><stop
         style="stop-color:#053b7a;stop-opacity:1;"
         offset="0.36845613"
         id="stop2787" /><stop
         style="stop-color:#00a9fd;stop-opacity:1;"
         offset="1"
         id="stop2789" /></linearGradient><clipPath
       clipPathUnits="userSpaceOnUse"
       id="clipPath2801"><path
         d="m 292.523,256.281 0.003,0.002 -35.864,-35.865 c -6.032,-6.032 -6.032,-15.813 -10e-4,-21.844 v 0 c 6.034,-6.032 15.812,-6.031 21.847,0 v 0 l 46.775,46.776 c 5.906,5.906 6.277,15.15 0.616,21.205 v 0 l -0.239,0.256 -0.312,0.311 c -0.021,0.023 -0.041,0.049 -0.065,0.073 v 0 c -0.024,0.025 -0.054,0.046 -0.079,0.07 v 0 l -27.592,27.56 c 14.859,-14.858 -5.089,-38.544 -5.089,-38.544"
         id="path2799" /></clipPath><linearGradient
       x1="0"
       y1="0"
       x2="1"
       y2="0"
       gradientUnits="userSpaceOnUse"
       gradientTransform="matrix(-108.67403,0,0,108.67403,313.91699,244.4375)"
       spreadMethod="pad"
       id="linearGradient2815"><stop
         style="stop-color:#00a9fd;stop-opacity:1;"
         offset="0"
         id="stop2807" /><stop
         style="stop-color:#053b7a;stop-opacity:1;"
         offset="0.63154393"
         id="stop2809" /><stop
         style="stop-color:#053b7a;stop-opacity:1;"
         offset="0.990444"
         id="stop2811" /><stop
         style="stop-color:#053b7a;stop-opacity:1;"
         offset="1"
         id="stop2813" /></linearGradient><clipPath
       clipPathUnits="userSpaceOnUse"
       id="clipPath2825"><path
         d="M 0,500 H 500 V 0 H 0 Z"
         id="path2823" /></clipPath><clipPath
       clipPathUnits="userSpaceOnUse"
       id="clipPath2729-8"><path
         d="m 171.921,324.836 c -6.033,-6.032 -6.032,-15.814 0,-21.846 v 0 l 27.669,-27.602 19.106,-19.172 c 6.032,-6.033 15.812,-6.033 21.845,0 v 0 c 6.033,6.03 6.033,15.813 0,21.843 v 0 l -46.775,46.777 c -3.016,3.016 -6.97,4.524 -10.923,4.524 v 0 c -3.954,0 -7.906,-1.508 -10.922,-4.524"
         id="path2727-8" /></clipPath><radialGradient
       fx="0"
       fy="0"
       cx="0"
       cy="0"
       r="1"
       gradientUnits="userSpaceOnUse"
       gradientTransform="matrix(85.869682,0,0,-85.869682,170.24854,317.78516)"
       spreadMethod="pad"
       id="radialGradient2743-3"><stop
         style="stop-color:#053b7a;stop-opacity:1;"
         offset="0"
         id="stop2735-3" /><stop
         style="stop-color:#053b7a;stop-opacity:1;"
         offset="0.166667"
         id="stop2737-8" /><stop
         style="stop-color:#053b7a;stop-opacity:1;"
         offset="0.58461493"
         id="stop2739-9" /><stop
         style="stop-color:#00a9fd;stop-opacity:1;"
         offset="1"
         id="stop2741-8" /></radialGradient><clipPath
       clipPathUnits="userSpaceOnUse"
       id="clipPath2753-0"><path
         d="m 218.695,371.64 -46.774,-46.777 c -5.908,-5.906 -6.278,-15.149 -0.618,-21.205 v 0 l 0.24,-0.254 0.311,-0.312 c 0.024,-0.023 0.043,-0.049 0.067,-0.073 v 0 c 0.024,-0.025 0.052,-0.046 0.077,-0.071 v 0 l 27.592,-27.56 c -14.857,14.858 5.09,38.544 5.09,38.544 v 0 l -0.004,-0.001 35.865,35.863 c 6.031,6.033 6.033,15.815 0,21.846 v 0 c -3.016,3.016 -6.969,4.524 -10.922,4.524 v 0 c -3.954,0 -7.907,-1.508 -10.924,-4.524"
         id="path2751-7" /></clipPath><clipPath
       clipPathUnits="userSpaceOnUse"
       id="clipPath2777-6"><path
         d="m 256.661,313.998 c -6.031,-6.032 -6.031,-15.813 0,-21.844 v 0 l 46.777,-46.777 c 6.032,-6.032 15.814,-6.034 21.845,0 v 0 c 6.033,6.033 6.031,15.814 0,21.846 v 0 l -27.671,27.602 -19.104,19.173 c -3.018,3.017 -6.971,4.525 -10.924,4.525 v 0 c -3.953,0 -7.906,-1.508 -10.923,-4.525"
         id="path2775-5" /></clipPath><clipPath
       clipPathUnits="userSpaceOnUse"
       id="clipPath2801-6"><path
         d="m 292.523,256.281 0.003,0.002 -35.864,-35.865 c -6.032,-6.032 -6.032,-15.813 -10e-4,-21.844 v 0 c 6.034,-6.032 15.812,-6.031 21.847,0 v 0 l 46.775,46.776 c 5.906,5.906 6.277,15.15 0.616,21.205 v 0 l -0.239,0.256 -0.312,0.311 c -0.021,0.023 -0.041,0.049 -0.065,0.073 v 0 c -0.024,0.025 -0.054,0.046 -0.079,0.07 v 0 l -27.592,27.56 c 14.859,-14.858 -5.089,-38.544 -5.089,-38.544"
         id="path2799-8" /></clipPath><clipPath
       clipPathUnits="userSpaceOnUse"
       id="clipPath2825-2"><path
         d="M 0,500 H 500 V 0 H 0 Z"
         id="path2823-2" /></clipPath><linearGradient
       inkscape:collect="always"
       xlink:href="#linearGradient2767"
       id="linearGradient833"
       gradientUnits="userSpaceOnUse"
       gradientTransform="matrix(108.67403,0,0,-108.67403,183.28564,325.77637)"
       x1="0"
       y1="0"
       x2="1"
       y2="0"
       spreadMethod="pad" /><linearGradient
       inkscape:collect="always"
       xlink:href="#linearGradient2791"
       id="linearGradient835"
       gradientUnits="userSpaceOnUse"
       gradientTransform="matrix(-77.669922,0,0,77.669922,329.80762,279.6875)"
       x1="0"
       y1="0"
       x2="1"
       y2="0"
       spreadMethod="pad" /><linearGradient
       inkscape:collect="always"
       xlink:href="#linearGradient2815"
       id="linearGradient837"
       gradientUnits="userSpaceOnUse"
       gradientTransform="matrix(-108.67403,0,0,108.67403,313.91699,244.4375)"
       x1="0"
       y1="0"
       x2="1"
       y2="0"
       spreadMethod="pad" /></defs><g
     inkscape:label="Capa 1"
     inkscape:groupmode="layer"
     id="layer1"
     transform="translate(-220.00001)" /><g
     id="g1134"
     transform="matrix(1.3333333,0,0,1.3333333,-7.0555562,-7.0555538)"><g
       id="g2723"
       transform="matrix(0.17427299,0,0,-0.174273,-23.858295,70.859407)"><g
         id="g2725"
         clip-path="url(#clipPath2729)"><g
           id="g2731"><g
             id="g2733"><path
               d="m 171.921,324.836 c -6.033,-6.032 -6.032,-15.814 0,-21.846 v 0 l 27.669,-27.602 19.106,-19.172 c 6.032,-6.033 15.812,-6.033 21.845,0 v 0 c 6.033,6.03 6.033,15.813 0,21.843 v 0 l -46.775,46.777 c -3.016,3.016 -6.97,4.524 -10.923,4.524 v 0 c -3.954,0 -7.906,-1.508 -10.922,-4.524"
               style="fill:url(#radialGradient2743);stroke:none"
               id="path2745" /></g></g></g></g><g
       id="g2747"
       transform="matrix(0.17427299,0,0,-0.174273,-23.858295,70.859407)"><g
         id="g2749"
         clip-path="url(#clipPath2753)"><g
           id="g2755"><g
             id="g2757"><path
               d="m 218.695,371.64 -46.774,-46.777 c -5.908,-5.906 -6.278,-15.149 -0.618,-21.205 v 0 l 0.24,-0.254 0.311,-0.312 c 0.024,-0.023 0.043,-0.049 0.067,-0.073 v 0 c 0.024,-0.025 0.052,-0.046 0.077,-0.071 v 0 l 27.592,-27.56 c -14.857,14.858 5.09,38.544 5.09,38.544 v 0 l -0.004,-0.001 35.865,35.863 c 6.031,6.033 6.033,15.815 0,21.846 v 0 c -3.016,3.016 -6.969,4.524 -10.922,4.524 v 0 c -3.954,0 -7.907,-1.508 -10.924,-4.524"
               style="fill:url(#linearGradient833);stroke:none"
               id="path2769" /></g></g></g></g><g
       id="g2771"
       transform="matrix(0.17427299,0,0,-0.174273,-23.858295,70.859407)"><g
         id="g2773"
         clip-path="url(#clipPath2777)"><g
           id="g2779"><g
             id="g2781"><path
               d="m 256.661,313.998 c -6.031,-6.032 -6.031,-15.813 0,-21.844 v 0 l 46.777,-46.777 c 6.032,-6.032 15.814,-6.034 21.845,0 v 0 c 6.033,6.033 6.031,15.814 0,21.846 v 0 l -27.671,27.602 -19.104,19.173 c -3.018,3.017 -6.971,4.525 -10.924,4.525 v 0 c -3.953,0 -7.906,-1.508 -10.923,-4.525"
               style="fill:url(#linearGradient835);stroke:none"
               id="path2793" /></g></g></g></g><g
       id="g2795"
       transform="matrix(0.17427299,0,0,-0.174273,-23.858295,70.859407)"><g
         id="g2797"
         clip-path="url(#clipPath2801)"><g
           id="g2803"><g
             id="g2805"><path
               d="m 292.523,256.281 0.003,0.002 -35.864,-35.865 c -6.032,-6.032 -6.032,-15.813 -10e-4,-21.844 v 0 c 6.034,-6.032 15.812,-6.031 21.847,0 v 0 l 46.775,46.776 c 5.906,5.906 6.277,15.15 0.616,21.205 v 0 l -0.239,0.256 -0.312,0.311 c -0.021,0.023 -0.041,0.049 -0.065,0.073 v 0 c -0.024,0.025 -0.054,0.046 -0.079,0.07 v 0 l -27.592,27.56 c 14.859,-14.858 -5.089,-38.544 -5.089,-38.544"
               style="fill:url(#linearGradient837);stroke:none"
               id="path2817" /></g></g></g></g><g
       id="g2819"
       transform="matrix(0.17427299,0,0,-0.174273,-23.858295,70.859407)"
       style="fill:#2f2f2f;fill-opacity:1"><g
         id="g2821"
         clip-path="url(#clipPath2825)"
         style="fill:#2f2f2f;fill-opacity:1"><g
           id="g2827"
           transform="translate(239.0371,204.7324)"
           style="fill:#2f2f2f;fill-opacity:1"><path
             d="m 0,0 c -2.466,-7.884 -10.854,-12.275 -18.738,-9.81 -7.881,2.465 -12.273,10.856 -9.808,18.738 l 48.382,152.079 c 2.467,7.884 10.857,12.277 18.74,9.81 7.881,-2.464 12.274,-10.855 9.809,-18.738 z"
             style="fill:#2f2f2f;fill-opacity:1;fill-rule:nonzero;stroke:none"
             id="path2829" /></g></g></g></g></svg>
